<svg id="visual" viewBox="0 0 960 540" width="960" height="540" xmlns="http://www.w3.org/2000/svg" xmlns:xlink="http://www.w3.org/1999/xlink" version="1.1"><rect x="0" y="0" width="960" height="540" fill="#9e4709"></rect><defs><linearGradient id="grad1_0" x1="43.8%" y1="100%" x2="100%" y2="0%"><stop offset="14.444444444444446%" stop-color="#6d2c18" stop-opacity="1"></stop><stop offset="85.55555555555554%" stop-color="#6d2c18" stop-opacity="1"></stop></linearGradient></defs><defs><linearGradient id="grad1_1" x1="43.8%" y1="100%" x2="100%" y2="0%"><stop offset="14.444444444444446%" stop-color="#6d2c18" stop-opacity="1"></stop><stop offset="85.55555555555554%" stop-color="#742f17" stop-opacity="1"></stop></linearGradient></defs><defs><linearGradient id="grad1_2" x1="43.8%" y1="100%" x2="100%" y2="0%"><stop offset="14.444444444444446%" stop-color="#7c3316" stop-opacity="1"></stop><stop offset="85.55555555555554%" stop-color="#742f17" stop-opacity="1"></stop></linearGradient></defs><defs><linearGradient id="grad1_3" x1="43.8%" y1="100%" x2="100%" y2="0%"><stop offset="14.444444444444446%" stop-color="#7c3316" stop-opacity="1"></stop><stop offset="85.55555555555554%" stop-color="#833615" stop-opacity="1"></stop></linearGradient></defs><defs><linearGradient id="grad1_4" x1="43.8%" y1="100%" x2="100%" y2="0%"><stop offset="14.444444444444446%" stop-color="#8a3a13" stop-opacity="1"></stop><stop offset="85.55555555555554%" stop-color="#833615" stop-opacity="1"></stop></linearGradient></defs><defs><linearGradient id="grad1_5" x1="43.8%" y1="100%" x2="100%" y2="0%"><stop offset="14.444444444444446%" stop-color="#8a3a13" stop-opacity="1"></stop><stop offset="85.55555555555554%" stop-color="#913e11" stop-opacity="1"></stop></linearGradient></defs><defs><linearGradient id="grad1_6" x1="43.8%" y1="100%" x2="100%" y2="0%"><stop offset="14.444444444444446%" stop-color="#97430e" stop-opacity="1"></stop><stop offset="85.55555555555554%" stop-color="#913e11" stop-opacity="1"></stop></linearGradient></defs><defs><linearGradient id="grad1_7" x1="43.8%" y1="100%" x2="100%" y2="0%"><stop offset="14.444444444444446%" stop-color="#97430e" stop-opacity="1"></stop><stop offset="85.55555555555554%" stop-color="#9e4709" stop-opacity="1"></stop></linearGradient></defs><defs><linearGradient id="grad2_0" x1="0%" y1="100%" x2="56.3%" y2="0%"><stop offset="14.444444444444446%" stop-color="#6d2c18" stop-opacity="1"></stop><stop offset="85.55555555555554%" stop-color="#6d2c18" stop-opacity="1"></stop></linearGradient></defs><defs><linearGradient id="grad2_1" x1="0%" y1="100%" x2="56.3%" y2="0%"><stop offset="14.444444444444446%" stop-color="#742f17" stop-opacity="1"></stop><stop offset="85.55555555555554%" stop-color="#6d2c18" stop-opacity="1"></stop></linearGradient></defs><defs><linearGradient id="grad2_2" x1="0%" y1="100%" x2="56.3%" y2="0%"><stop offset="14.444444444444446%" stop-color="#742f17" stop-opacity="1"></stop><stop offset="85.55555555555554%" stop-color="#7c3316" stop-opacity="1"></stop></linearGradient></defs><defs><linearGradient id="grad2_3" x1="0%" y1="100%" x2="56.3%" y2="0%"><stop offset="14.444444444444446%" stop-color="#833615" stop-opacity="1"></stop><stop offset="85.55555555555554%" stop-color="#7c3316" stop-opacity="1"></stop></linearGradient></defs><defs><linearGradient id="grad2_4" x1="0%" y1="100%" x2="56.3%" y2="0%"><stop offset="14.444444444444446%" stop-color="#833615" stop-opacity="1"></stop><stop offset="85.55555555555554%" stop-color="#8a3a13" stop-opacity="1"></stop></linearGradient></defs><defs><linearGradient id="grad2_5" x1="0%" y1="100%" x2="56.3%" y2="0%"><stop offset="14.444444444444446%" stop-color="#913e11" stop-opacity="1"></stop><stop offset="85.55555555555554%" stop-color="#8a3a13" stop-opacity="1"></stop></linearGradient></defs><defs><linearGradient id="grad2_6" x1="0%" y1="100%" x2="56.3%" y2="0%"><stop offset="14.444444444444446%" stop-color="#913e11" stop-opacity="1"></stop><stop offset="85.55555555555554%" stop-color="#97430e" stop-opacity="1"></stop></linearGradient></defs><defs><linearGradient id="grad2_7" x1="0%" y1="100%" x2="56.3%" y2="0%"><stop offset="14.444444444444446%" stop-color="#9e4709" stop-opacity="1"></stop><stop offset="85.55555555555554%" stop-color="#97430e" stop-opacity="1"></stop></linearGradient></defs><g transform="translate(960, 540)"><path d="M-540 0C-501.4 -79.8 -462.8 -159.6 -422.6 -244C-382.4 -328.4 -340.7 -417.5 -270 -467.7C-199.3 -517.8 -99.7 -528.9 0 -540L0 0Z" fill="#9b450b"></path><path d="M-472.5 0C-438.7 -69.8 -404.9 -139.6 -369.8 -213.5C-334.6 -287.4 -298.1 -365.4 -236.3 -409.2C-174.4 -453 -87.2 -462.8 0 -472.5L0 0Z" fill="#94400f"></path><path d="M-405 0C-376 -59.8 -347.1 -119.7 -317 -183C-286.8 -246.3 -255.5 -313.2 -202.5 -350.7C-149.5 -388.3 -74.7 -396.7 0 -405L0 0Z" fill="#8d3c12"></path><path d="M-337.5 0C-313.4 -49.9 -289.2 -99.7 -264.1 -152.5C-239 -205.3 -212.9 -261 -168.8 -292.3C-124.6 -323.6 -62.3 -330.6 0 -337.5L0 0Z" fill="#863814"></path><path d="M-270 0C-250.7 -39.9 -231.4 -79.8 -211.3 -122C-191.2 -164.2 -170.3 -208.8 -135 -233.8C-99.7 -258.9 -49.8 -264.4 0 -270L0 0Z" fill="#7f3516"></path><path d="M-202.5 0C-188 -29.9 -173.5 -59.8 -158.5 -91.5C-143.4 -123.2 -127.8 -156.6 -101.3 -175.4C-74.7 -194.2 -37.4 -198.3 0 -202.5L0 0Z" fill="#783117"></path><path d="M-135 0C-125.3 -19.9 -115.7 -39.9 -105.7 -61C-95.6 -82.1 -85.2 -104.4 -67.5 -116.9C-49.8 -129.4 -24.9 -132.2 0 -135L0 0Z" fill="#712e18"></path><path d="M-67.5 0C-62.7 -10 -57.8 -19.9 -52.8 -30.5C-47.8 -41.1 -42.6 -52.2 -33.8 -58.5C-24.9 -64.7 -12.5 -66.1 0 -67.5L0 0Z" fill="#6d2c18"></path></g><g transform="translate(0, 0)"><path d="M540 0C478.3 66.4 416.6 132.9 379.3 219C342 305.1 329.2 410.9 270 467.7C210.8 524.4 105.4 532.2 0 540L0 0Z" fill="#9b450b"></path><path d="M472.5 0C418.5 58.1 364.5 116.3 331.9 191.6C299.3 267 288 359.5 236.3 409.2C184.5 458.9 92.2 465.7 0 472.5L0 0Z" fill="#94400f"></path><path d="M405 0C358.7 49.8 312.5 99.7 284.5 164.2C256.5 228.8 246.9 308.2 202.5 350.7C158.1 393.3 79.1 399.2 0 405L0 0Z" fill="#8d3c12"></path><path d="M337.5 0C298.9 41.5 260.4 83.1 237.1 136.9C213.8 190.7 205.7 256.8 168.8 292.3C131.8 327.8 65.9 332.6 0 337.5L0 0Z" fill="#863814"></path><path d="M270 0C239.2 33.2 208.3 66.4 189.7 109.5C171 152.6 164.6 205.4 135 233.8C105.4 262.2 52.7 266.1 0 270L0 0Z" fill="#7f3516"></path><path d="M202.5 0C179.4 24.9 156.2 49.8 142.2 82.1C128.3 114.4 123.4 154.1 101.3 175.4C79.1 196.7 39.5 199.6 0 202.5L0 0Z" fill="#783117"></path><path d="M135 0C119.6 16.6 104.2 33.2 94.8 54.7C85.5 76.3 82.3 102.7 67.5 116.9C52.7 131.1 26.4 133.1 0 135L0 0Z" fill="#712e18"></path><path d="M67.5 0C59.8 8.3 52.1 16.6 47.4 27.4C42.8 38.1 41.1 51.4 33.8 58.5C26.4 65.6 13.2 66.5 0 67.5L0 0Z" fill="#6d2c18"></path></g></svg>