<svg id="visual" viewBox="0 0 960 540" width="960" height="540" xmlns="http://www.w3.org/2000/svg" xmlns:xlink="http://www.w3.org/1999/xlink" version="1.1"><rect x="0" y="0" width="960" height="540" fill="#f08724"></rect><path d="M0 332L14.5 333.2C29 334.3 58 336.7 87.2 336.8C116.3 337 145.7 335 174.8 334.7C204 334.3 233 335.7 262 335.5C291 335.3 320 333.7 349 333.3C378 333 407 334 436.2 333.8C465.3 333.7 494.7 332.3 523.8 332.3C553 332.3 582 333.7 611 335C640 336.3 669 337.7 698 337C727 336.3 756 333.7 785.2 333.3C814.3 333 843.7 335 872.8 335.2C902 335.3 931 333.7 945.5 332.8L960 332L960 0L945.5 0C931 0 902 0 872.8 0C843.7 0 814.3 0 785.2 0C756 0 727 0 698 0C669 0 640 0 611 0C582 0 553 0 523.8 0C494.7 0 465.3 0 436.2 0C407 0 378 0 349 0C320 0 291 0 262 0C233 0 204 0 174.8 0C145.7 0 116.3 0 87.2 0C58 0 29 0 14.5 0L0 0Z" fill="#146500"></path><path d="M0 295L14.5 295.2C29 295.3 58 295.7 87.2 294.7C116.3 293.7 145.7 291.3 174.8 291.2C204 291 233 293 262 293.8C291 294.7 320 294.3 349 293.7C378 293 407 292 436.2 292.3C465.3 292.7 494.7 294.3 523.8 294.2C553 294 582 292 611 291.7C640 291.3 669 292.7 698 293.7C727 294.7 756 295.3 785.2 295.8C814.3 296.3 843.7 296.7 872.8 296C902 295.3 931 293.7 945.5 292.8L960 292L960 0L945.5 0C931 0 902 0 872.8 0C843.7 0 814.3 0 785.2 0C756 0 727 0 698 0C669 0 640 0 611 0C582 0 553 0 523.8 0C494.7 0 465.3 0 436.2 0C407 0 378 0 349 0C320 0 291 0 262 0C233 0 204 0 174.8 0C145.7 0 116.3 0 87.2 0C58 0 29 0 14.5 0L0 0Z" fill="#645b00"></path><path d="M0 249L14.5 249C29 249 58 249 87.2 249C116.3 249 145.7 249 174.8 249.2C204 249.3 233 249.7 262 249.7C291 249.7 320 249.3 349 249.2C378 249 407 249 436.2 248.8C465.3 248.7 494.7 248.3 523.8 248.3C553 248.3 582 248.7 611 248.7C640 248.7 669 248.3 698 248.7C727 249 756 250 785.2 251C814.3 252 843.7 253 872.8 252.5C902 252 931 250 945.5 249L960 248L960 0L945.5 0C931 0 902 0 872.8 0C843.7 0 814.3 0 785.2 0C756 0 727 0 698 0C669 0 640 0 611 0C582 0 553 0 523.8 0C494.7 0 465.3 0 436.2 0C407 0 378 0 349 0C320 0 291 0 262 0C233 0 204 0 174.8 0C145.7 0 116.3 0 87.2 0C58 0 29 0 14.5 0L0 0Z" fill="#934800"></path><path d="M0 210L14.5 209.5C29 209 58 208 87.2 207.7C116.3 207.3 145.7 207.7 174.8 208.5C204 209.3 233 210.7 262 211C291 211.3 320 210.7 349 209.7C378 208.7 407 207.3 436.2 207C465.3 206.7 494.7 207.3 523.8 207.5C553 207.7 582 207.3 611 206.8C640 206.3 669 205.7 698 206.5C727 207.3 756 209.7 785.2 209.7C814.3 209.7 843.7 207.3 872.8 206.2C902 205 931 205 945.5 205L960 205L960 0L945.5 0C931 0 902 0 872.8 0C843.7 0 814.3 0 785.2 0C756 0 727 0 698 0C669 0 640 0 611 0C582 0 553 0 523.8 0C494.7 0 465.3 0 436.2 0C407 0 378 0 349 0C320 0 291 0 262 0C233 0 204 0 174.8 0C145.7 0 116.3 0 87.2 0C58 0 29 0 14.5 0L0 0Z" fill="#bf0b0b"></path><path d="M0 163L14.5 163.8C29 164.7 58 166.3 87.2 166.8C116.3 167.3 145.7 166.7 174.8 167C204 167.3 233 168.7 262 168.8C291 169 320 168 349 167.8C378 167.7 407 168.3 436.2 168.3C465.3 168.3 494.7 167.7 523.8 167.8C553 168 582 169 611 169.3C640 169.7 669 169.3 698 168.7C727 168 756 167 785.2 166.3C814.3 165.7 843.7 165.3 872.8 166C902 166.7 931 168.3 945.5 169.2L960 170L960 0L945.5 0C931 0 902 0 872.8 0C843.7 0 814.3 0 785.2 0C756 0 727 0 698 0C669 0 640 0 611 0C582 0 553 0 523.8 0C494.7 0 465.3 0 436.2 0C407 0 378 0 349 0C320 0 291 0 262 0C233 0 204 0 174.8 0C145.7 0 116.3 0 87.2 0C58 0 29 0 14.5 0L0 0Z" fill="#bf0b0b"></path><path d="M0 125L14.5 124.5C29 124 58 123 87.2 123C116.3 123 145.7 124 174.8 124.5C204 125 233 125 262 125.3C291 125.7 320 126.3 349 125.7C378 125 407 123 436.2 122.2C465.3 121.3 494.7 121.7 523.8 122.7C553 123.7 582 125.3 611 125.3C640 125.3 669 123.7 698 123.8C727 124 756 126 785.2 126.5C814.3 127 843.7 126 872.8 124.8C902 123.7 931 122.3 945.5 121.7L960 121L960 0L945.5 0C931 0 902 0 872.8 0C843.7 0 814.3 0 785.2 0C756 0 727 0 698 0C669 0 640 0 611 0C582 0 553 0 523.8 0C494.7 0 465.3 0 436.2 0C407 0 378 0 349 0C320 0 291 0 262 0C233 0 204 0 174.8 0C145.7 0 116.3 0 87.2 0C58 0 29 0 14.5 0L0 0Z" fill="#934800"></path><path d="M0 87L14.5 86.2C29 85.3 58 83.7 87.2 83C116.3 82.3 145.7 82.7 174.8 82.5C204 82.3 233 81.7 262 81C291 80.3 320 79.7 349 80.3C378 81 407 83 436.2 83.5C465.3 84 494.7 83 523.8 82C553 81 582 80 611 80.5C640 81 669 83 698 83.7C727 84.3 756 83.7 785.2 83.3C814.3 83 843.7 83 872.8 83.5C902 84 931 85 945.5 85.5L960 86L960 0L945.5 0C931 0 902 0 872.8 0C843.7 0 814.3 0 785.2 0C756 0 727 0 698 0C669 0 640 0 611 0C582 0 553 0 523.8 0C494.7 0 465.3 0 436.2 0C407 0 378 0 349 0C320 0 291 0 262 0C233 0 204 0 174.8 0C145.7 0 116.3 0 87.2 0C58 0 29 0 14.5 0L0 0Z" fill="#645b00"></path><path d="M0 44L14.5 43.7C29 43.3 58 42.7 87.2 41.5C116.3 40.3 145.7 38.7 174.8 38.5C204 38.3 233 39.7 262 40.8C291 42 320 43 349 43.2C378 43.3 407 42.7 436.2 42C465.3 41.3 494.7 40.7 523.8 40.8C553 41 582 42 611 42.5C640 43 669 43 698 42.2C727 41.3 756 39.7 785.2 39.7C814.3 39.7 843.7 41.3 872.8 41.3C902 41.3 931 39.7 945.5 38.8L960 38L960 0L945.5 0C931 0 902 0 872.8 0C843.7 0 814.3 0 785.2 0C756 0 727 0 698 0C669 0 640 0 611 0C582 0 553 0 523.8 0C494.7 0 465.3 0 436.2 0C407 0 378 0 349 0C320 0 291 0 262 0C233 0 204 0 174.8 0C145.7 0 116.3 0 87.2 0C58 0 29 0 14.5 0L0 0Z" fill="#146500"></path></svg>